<svg width="268" height="116" viewBox="0 0 268 116" fill="none" xmlns="http://www.w3.org/2000/svg">
<path d="M15.7881 86.8146L55.1658 65.606C56.2301 65.0319 56.6286 63.7051 56.0545 62.6392L43.4964 39.321C42.9223 38.2567 41.5955 37.8581 40.5296 38.4306L1.15191 59.6392C0.0876065 60.2133 -0.310896 61.5401 0.261583 62.606L12.8197 85.9242C13.3954 86.9885 14.7238 87.387 15.7881 86.8146Z" fill="#2C786C"/>
<path opacity="0.7" d="M15.7881 86.8146L55.1658 65.606C56.2301 65.0319 56.6286 63.7051 56.0545 62.6392L43.4964 39.321C42.9223 38.2567 41.5955 37.8581 40.5296 38.4306L1.15191 59.6392C0.0876065 60.2133 -0.310896 61.5401 0.261583 62.606L12.8197 85.9242C13.3954 86.9885 14.7238 87.387 15.7881 86.8146Z" fill="white"/>
<path opacity="0.2" d="M44.5354 41.2488L32.216 64.2539C31.2561 66.0456 29.3141 67.0831 27.2914 66.8822L1.65006 64.3472L27.7516 68.1901C30.0921 68.5348 32.3805 67.3013 33.3815 65.1585L44.5354 41.2488Z" fill="black"/>
<path d="M74.4419 36.963C74.0228 28.1639 67.5104 10.4361 59.5859 5.01493C51.6613 -0.407802 56.8753 7.10084 56.8753 7.10084C56.8753 7.10084 49.3682 -0.197474 45.4052 0.0112756C41.4421 0.220025 45.4052 4.80777 45.4052 4.80777C45.4052 4.80777 37.2718 -0.205378 33.5175 0.00653389C29.7632 0.220027 33.5175 4.59901 33.5175 4.59901C33.5175 4.59901 26.8439 -0.197473 24.1333 2.09719C21.4227 4.39185 58.7509 28.9989 62.9211 39.0094C67.0929 49.0167 74.8657 45.8681 74.4419 36.963Z" fill="#2C786C"/>
<path opacity="0.4" d="M74.4419 36.963C74.0228 28.1639 67.5104 10.4361 59.5859 5.01493C51.6613 -0.407802 56.8753 7.10084 56.8753 7.10084C56.8753 7.10084 49.3682 -0.197474 45.4052 0.0112756C41.4421 0.220025 45.4052 4.80777 45.4052 4.80777C45.4052 4.80777 37.2718 -0.205378 33.5175 0.00653389C29.7632 0.220027 33.5175 4.59901 33.5175 4.59901C33.5175 4.59901 26.8439 -0.197473 24.1333 2.09719C21.4227 4.39185 58.7509 28.9989 62.9211 39.0094C67.0929 49.0167 74.8657 45.8681 74.4419 36.963Z" fill="white"/>
<path d="M42.3814 35.6647L37.3952 38.8576C37.0362 39.0869 37.2228 39.6436 37.6482 39.6104L42.8859 39.2023L42.4352 43.2224C42.3862 43.6588 42.9286 43.8992 43.2196 43.5703L46.2401 40.1496L42.3814 35.6647Z" fill="#2C786C"/>
<path opacity="0.3" d="M42.3814 35.6647L37.3952 38.8576C37.0362 39.0869 37.2228 39.6436 37.6482 39.6104L42.8859 39.2023L42.4352 43.2224C42.3862 43.6588 42.9286 43.8992 43.2196 43.5703L46.2401 40.1496L42.3814 35.6647Z" fill="white"/>
<path d="M112.346 15.862C112.346 15.862 105.463 11.0624 95.0368 14.1904C95.0368 14.1904 92.0384 27.9537 83.8403 32.5414C79.338 35.0606 68.3075 34.844 59.5843 32.0195C49.2243 28.6653 44.1526 28.6653 42.2755 32.5414C40.4979 36.2119 42.4842 40.466 50.4088 42.3431C58.3334 44.2203 64.5895 57.9835 78.979 58.1922C93.3684 58.401 100.942 43.9736 97.3299 31.2905C97.3299 31.2905 101.711 21.8367 112.346 15.862Z" fill="#2C786C"/>
<path opacity="0.5" d="M112.346 15.862C112.346 15.862 105.463 11.0624 95.0368 14.1904C95.0368 14.1904 92.0384 27.9537 83.8403 32.5414C79.338 35.0606 68.3075 34.844 59.5843 32.0195C49.2243 28.6653 44.1526 28.6653 42.2755 32.5414C40.4979 36.2119 42.4842 40.466 50.4088 42.3431C58.3334 44.2203 64.5895 57.9835 78.979 58.1922C93.3684 58.401 100.942 43.9736 97.3299 31.2905C97.3299 31.2905 101.711 21.8367 112.346 15.862Z" fill="white"/>
<path d="M46.2386 35.1492C46.2386 35.5382 46.5533 35.8529 46.9423 35.8529C47.3313 35.8529 47.6461 35.5382 47.6461 35.1492C47.6461 34.7602 47.3313 34.4454 46.9423 34.4454C46.5533 34.4454 46.2386 34.7602 46.2386 35.1492Z" fill="#263238"/>
<path d="M82.319 46.7315C90.8176 49.0483 109.689 48.3256 117.292 42.4616C124.896 36.5976 116.146 39.2386 116.146 39.2386C116.146 39.2386 125.405 34.3504 126.43 30.517C127.455 26.6836 121.867 29.0368 121.867 29.0368C121.867 29.0368 129.147 22.8487 130.104 19.213C131.06 15.5772 125.736 17.796 125.736 17.796C125.736 17.796 132.357 12.9283 131.013 9.64212C129.669 6.3559 94.7395 34.2666 83.9304 35.1427C73.1213 36.022 73.7176 44.3862 82.319 46.7315Z" fill="#2C786C"/>
<path opacity="0.4" d="M82.319 46.7315C90.8176 49.0483 109.689 48.3256 117.292 42.4616C124.896 36.5976 116.146 39.2386 116.146 39.2386C116.146 39.2386 125.405 34.3504 126.43 30.517C127.455 26.6836 121.867 29.0368 121.867 29.0368C121.867 29.0368 129.147 22.8487 130.104 19.213C131.06 15.5772 125.736 17.796 125.736 17.796C125.736 17.796 132.357 12.9283 131.013 9.64212C129.669 6.3559 94.7395 34.2666 83.9304 35.1427C73.1213 36.022 73.7176 44.3862 82.319 46.7315Z" fill="white"/>
<path d="M137.982 7.67002C139.469 7.14024 140.973 6.64684 142.489 6.18665" stroke="#2C786C" stroke-width="0.75" stroke-linecap="round" stroke-linejoin="round"/>
<path d="M152 3.46987C156.177 2.49096 160.424 1.85614 164.641 1.52806C176.229 0.625173 194.395 -0.659136 201.493 12.2627C207.961 24.0376 196.833 44.1278 192.883 55.0598C188.046 68.4484 182.294 85.0045 188.01 99.1786C199.756 128.304 250.038 113.181 267 86.3555" stroke="#2C786C" stroke-width="0.75" stroke-linecap="round" stroke-linejoin="round" stroke-dasharray="6.03 6.03"/>
</svg>
