<svg width="517" height="324" viewBox="0 0 517 324" fill="none" xmlns="http://www.w3.org/2000/svg">
<g clip-path="url(#clip0_150_2)">
<path d="M431.864 319.889H32.333C24.288 319.889 17.766 313.367 17.766 305.322V50.984C17.766 42.939 24.288 36.417 32.333 36.417H431.864C439.909 36.417 446.431 42.939 446.431 50.984V305.322C446.431 313.367 439.909 319.889 431.864 319.889Z" fill="#263238"/>
<path d="M447.067 323.727H18.237C8.408 323.727 0.439003 315.759 0.439003 305.929V303.923C0.439003 301.162 2.67758 298.923 5.439 298.923H459.865C462.626 298.923 464.865 301.162 464.865 303.923V305.929C464.865 315.759 456.897 323.727 447.067 323.727Z" fill="#263238"/>
<path d="M429.326 47.679H34.872C32.1106 47.679 29.872 49.9175 29.872 52.679V282.067C29.872 284.828 32.1106 287.067 34.872 287.067H429.326C432.087 287.067 434.326 284.828 434.326 282.067V52.679C434.326 49.9175 432.087 47.679 429.326 47.679Z" fill="#455A64"/>
<path d="M446.431 298.923C446.431 299.067 350.463 299.183 232.109 299.183C113.713 299.183 17.766 299.066 17.766 298.923C17.766 298.779 113.713 298.663 232.109 298.663C350.463 298.663 446.431 298.779 446.431 298.923Z" fill="#455A64"/>
<path d="M337.031 -0.129005C343.644 -0.129005 349.005 5.23199 349.005 11.845V36.416H313.199V13.748C313.199 6.08399 319.412 -0.130005 327.077 -0.130005L337.031 -0.129005Z" fill="#263238"/>
<path d="M337.031 -0.128957C337.031 0.0150433 303.247 0.102044 261.582 0.0650436C219.903 0.0280436 186.126 -0.11796 186.127 -0.26196C186.127 -0.40596 219.904 -0.49296 261.583 -0.45596C303.247 -0.41896 337.031 -0.272957 337.031 -0.128957Z" fill="#263238"/>
<path d="M336.716 -0.158958L321.784 -0.261963L300.094 -0.129959H140.753C127.222 -0.129959 116.254 10.839 116.254 24.369V283.116V287.641H322.611V13.303C323.216 -0.128968 336.716 -0.158958 336.716 -0.158958Z" fill="#FCFCFC"/>
<path d="M336.716 -0.158986L212.29 0.113009L150.076 0.160014L142.299 0.165011C140.996 0.140011 139.72 0.216007 138.442 0.284007C137.177 0.463007 135.898 0.603011 134.669 0.972011C129.687 2.20601 125.22 5.19401 121.971 9.13801C120.351 11.124 119.093 13.387 118.172 15.769C117.971 16.375 117.693 16.958 117.553 17.584L117.076 19.443C116.881 20.707 116.64 21.967 116.631 23.25C116.521 28.402 116.606 33.61 116.584 38.787L116.751 287.641L116.254 287.144L322.611 287.278L322.248 287.641L322.348 139.637L322.467 65.637L322.539 28.638L322.557 19.388L322.566 14.763C322.569 13.992 322.542 13.221 322.663 12.453C322.758 11.687 322.789 10.909 323.026 10.168C323.708 7.17001 325.426 4.34501 328.023 2.63401C329.285 1.74901 330.695 1.07301 332.173 0.630008C333.646 0.181008 335.175 -0.109986 336.716 -0.158986ZM336.716 -0.158986C335.174 -0.104986 333.648 0.193013 332.178 0.648013C330.704 1.09601 329.299 1.77701 328.044 2.66501C325.461 4.38201 323.764 7.20002 323.096 10.186C322.863 10.924 322.836 11.698 322.744 12.461C322.627 13.223 322.656 13.996 322.656 14.766L322.665 19.391L322.683 28.641L322.755 65.642L322.874 139.643L322.974 287.641V288.004H322.61L116.253 288.138H115.755V287.64L115.922 38.786C115.951 33.596 115.871 28.43 115.99 23.219C116.003 21.903 116.25 20.609 116.453 19.313L116.945 17.406C117.09 16.764 117.374 16.166 117.582 15.544C118.53 13.101 119.825 10.781 121.489 8.747C124.825 4.707 129.41 1.65201 134.517 0.392009C135.777 0.0160087 137.088 -0.126989 138.384 -0.306989C139.695 -0.376989 141.007 -0.450993 142.297 -0.423993L150.074 -0.418988L212.287 -0.371991L336.716 -0.158986Z" fill="#263238"/>
<path d="M196.871 153.63L201.306 235.736C201.447 238.357 199.539 240.641 196.934 240.967L116.727 251.013L116.661 152.894L196.871 153.63Z" fill="#E0E0E0"/>
<path d="M86.9946 152.601L86.4695 234.638C86.4519 237.4 88.6761 239.653 91.4375 239.67L196.56 240.343C199.321 240.361 201.574 238.136 201.592 235.375L202.117 153.338C202.134 150.577 199.91 148.324 197.149 148.306L92.0266 147.633C89.2652 147.616 87.0123 149.84 86.9946 152.601Z" fill="#F5F5F5"/>
<path d="M90.927 158.421L90.4762 228.87C90.4585 231.631 92.6827 233.884 95.4442 233.902L192.478 234.523C195.24 234.54 197.492 232.316 197.51 229.555L197.961 159.106C197.979 156.344 195.754 154.091 192.993 154.074L95.959 153.453C93.1976 153.435 90.9447 155.659 90.927 158.421Z" fill="#2C786C"/>
<g opacity="0.2">
<path d="M94 233.88L128.876 184.115L150.109 215.549L164.736 198.925L193 234.567L94 233.88Z" fill="black"/>
</g>
<g opacity="0.2">
<path d="M161.175 178.201C161.145 182.855 157.348 186.604 152.693 186.574C148.039 186.544 144.29 182.747 144.32 178.092C144.35 173.438 148.147 169.689 152.802 169.719C157.457 169.749 161.205 173.546 161.175 178.201Z" fill="black"/>
</g>
<path d="M212.644 262.104C212.644 263.087 211.847 263.884 210.864 263.884C209.881 263.884 209.084 263.087 209.084 262.104C209.084 261.121 209.881 260.324 210.864 260.324C211.848 260.324 212.644 261.121 212.644 262.104Z" fill="black"/>
<path d="M223.208 262.104C223.208 263.087 222.411 263.884 221.428 263.884C220.445 263.884 219.648 263.087 219.648 262.104C219.648 261.121 220.445 260.324 221.428 260.324C222.411 260.324 223.208 261.121 223.208 262.104Z" fill="black"/>
<path d="M233.771 262.104C233.771 263.087 232.974 263.884 231.991 263.884C231.008 263.884 230.211 263.087 230.211 262.104C230.211 261.121 231.008 260.324 231.991 260.324C232.974 260.324 233.771 261.121 233.771 262.104Z" fill="black"/>
<path d="M385.76 162.441C382.854 163.358 381.594 167.5 383.499 169.88C385.403 172.259 389.721 171.938 391.252 169.303C392.783 166.668 390.924 162.757 387.914 162.281" fill="#FCFCFC"/>
<path d="M399.279 142.795C395.945 143.847 394.5 148.599 396.685 151.328C398.87 154.058 403.823 153.689 405.579 150.666C407.335 147.643 405.203 143.157 401.749 142.611" fill="#FCFCFC"/>
<path d="M428.152 56.1901C419.106 55.4261 409.955 57.4461 403.752 64.0741C397.549 70.7031 394.592 80.2371 395.954 89.2121C386.332 93.2101 381.086 105.446 384.824 115.172C388.562 124.898 400.652 130.471 410.475 126.996C414.89 138.184 425.491 146.694 437.368 148.584C449.246 150.475 461.965 145.677 469.635 136.413C479.072 138.546 489.663 138.407 497.592 132.862C505.52 127.317 509.108 115.116 503.066 107.559C513.937 104.912 519.462 91.3351 516.238 80.6211C513.014 69.9071 503.364 62.2181 493.057 57.8651C486.245 54.9871 477.752 53.4851 471.94 58.0571C467.288 50.9001 459.056 46.2031 450.528 45.8381C441.999 45.4771 433.397 49.4561 428.152 56.1901Z" fill="#FCFCFC"/>
<path d="M428.152 56.19C428.152 56.19 428.33 55.949 428.7 55.491C429.059 55.025 429.646 54.373 430.455 53.554C432.089 51.952 434.748 49.708 438.81 47.948C440.834 47.078 443.198 46.329 445.87 45.951C448.538 45.595 451.519 45.568 454.62 46.219C457.723 46.827 460.933 48.084 463.981 50.006C467.007 51.952 469.878 54.593 472.088 57.963L471.832 57.921C474.17 56.104 477.219 55.063 480.391 54.984C483.564 54.868 486.836 55.464 490.032 56.522C493.232 57.588 496.396 59.054 499.476 60.853C502.551 62.657 505.552 64.814 508.232 67.458C510.936 70.069 513.283 73.205 514.996 76.76C515.815 78.555 516.498 80.435 516.922 82.415C517.278 84.398 517.491 86.442 517.327 88.496C517.063 92.589 515.802 96.738 513.419 100.287C512.211 102.036 510.795 103.705 509.024 104.981C507.272 106.27 505.27 107.241 503.127 107.803L503.263 107.403C504.564 109.059 505.487 111.026 505.949 113.113C506.416 115.2 506.442 117.39 506.106 119.531C505.427 123.819 503.29 127.91 500.13 131.059C496.927 134.211 492.66 136.163 488.227 137.14C483.77 138.115 479.106 138.135 474.523 137.544C472.85 137.34 471.2 137.013 469.58 136.668L469.838 136.58C461.533 146.537 447.949 151.008 436.048 148.586C430.09 147.39 424.627 144.578 420.192 140.805C415.794 137.067 412.379 132.362 410.316 127.237C410.294 127.181 410.351 127.127 410.405 127.152V127.152C410.46 127.177 410.456 127.256 410.399 127.275C404.751 129.167 398.605 128.155 393.771 125.466C388.842 122.779 385.149 118.157 383.949 113.018C382.724 107.882 383.721 102.596 385.981 98.345C388.247 94.07 391.828 90.758 395.888 89.046L395.779 89.239C395.165 85.075 395.498 81.021 396.402 77.363C397.349 73.709 398.859 70.439 400.716 67.69C401.628 66.302 402.668 65.078 403.703 63.939C404.787 62.844 405.88 61.835 407.05 61.028C409.346 59.351 411.746 58.294 413.946 57.563C418.383 56.129 422.039 56.006 424.457 55.991C426.888 56.016 428.152 56.19 428.152 56.19C428.152 56.19 427.833 56.187 427.213 56.155C426.593 56.114 425.668 56.091 424.455 56.094C422.043 56.142 418.402 56.298 414.006 57.752C411.827 58.492 409.453 59.554 407.19 61.226C406.036 62.031 404.96 63.034 403.893 64.122C402.873 65.255 401.848 66.472 400.95 67.851C399.121 70.581 397.638 73.825 396.713 77.444C395.83 81.067 395.515 85.077 396.132 89.187V89.187C396.144 89.2682 396.1 89.3474 396.024 89.3794L396.023 89.38C392.051 91.068 388.544 94.326 386.327 98.531C384.116 102.712 383.153 107.906 384.361 112.919C385.541 117.93 389.153 122.443 393.989 125.07C398.775 127.724 404.862 128.691 410.395 126.772V126.772C410.516 126.73 410.649 126.791 410.697 126.91V126.91C412.729 132.015 416.125 136.709 420.511 140.429C424.889 144.147 430.28 146.916 436.146 148.089C447.859 150.471 461.267 146.052 469.435 136.25L469.536 136.129L469.693 136.162C471.299 136.504 472.932 136.828 474.589 137.03C479.126 137.615 483.732 137.593 488.114 136.635C492.469 135.68 496.661 133.753 499.768 130.693C502.847 127.629 504.94 123.627 505.602 119.452C506.291 115.297 505.419 110.913 502.871 107.718L502.631 107.417L503.008 107.318C505.084 106.774 507.024 105.836 508.727 104.586C510.448 103.348 511.83 101.722 513.012 100.015C515.344 96.551 516.588 92.48 516.851 88.467C517.015 86.453 516.807 84.45 516.462 82.509C516.051 80.577 515.382 78.722 514.579 76.957C512.898 73.457 510.591 70.36 507.922 67.774C505.277 65.156 502.308 63.013 499.262 61.217C496.212 59.427 493.068 57.963 489.907 56.902C486.746 55.848 483.518 55.255 480.406 55.36C477.293 55.431 474.33 56.439 472.049 58.197L471.897 58.314L471.793 58.154C469.623 54.824 466.796 52.205 463.811 50.271C460.804 48.36 457.633 47.104 454.565 46.489C451.499 45.832 448.549 45.845 445.903 46.183C443.252 46.544 440.902 47.273 438.886 48.124C434.84 49.844 432.175 52.051 430.524 53.625C429.707 54.429 429.109 55.068 428.738 55.523C428.357 55.97 428.152 56.19 428.152 56.19Z" fill="#263238"/>
<path d="M206 50H294" stroke="#2C786C" stroke-linecap="round"/>
<path d="M207 75H305" stroke="black" stroke-linecap="round"/>
<path d="M208 64H242" stroke="black" stroke-linecap="round"/>
<path d="M208 87H242" stroke="black" stroke-linecap="round"/>
<path d="M277 107H301" stroke="black" stroke-linecap="round"/>
<path d="M249 64H305" stroke="black" stroke-linecap="round"/>
<path d="M411 87H490" stroke="black" stroke-linecap="round"/>
<path d="M411 96H490" stroke="black" stroke-linecap="round"/>
<path d="M411 105H490" stroke="black" stroke-linecap="round"/>
<path d="M411 113H490" stroke="black" stroke-linecap="round"/>
<path d="M133 119H197" stroke="black" stroke-linecap="round"/>
<path d="M208 107H272" stroke="#2C786C" stroke-linecap="round"/>
<path d="M208 119H301" stroke="black" stroke-linecap="round"/>
<path d="M208 131H278" stroke="black" stroke-linecap="round"/>
<path d="M213 152H301" stroke="#2C786C" stroke-linecap="round"/>
<path d="M213 163H301" stroke="black" stroke-linecap="round"/>
<path d="M213 175H301" stroke="black" stroke-linecap="round"/>
<path d="M213 186H301" stroke="black" stroke-linecap="round"/>
<path d="M213 197H255" stroke="black" stroke-linecap="round"/>
<path d="M208 221H271" stroke="#2C786C" stroke-linecap="round"/>
<path d="M208 233H299" stroke="black" stroke-linecap="round"/>
<path d="M133 131H197" stroke="black" stroke-linecap="round"/>
<path d="M176.719 94L173.406 83.125H156.75L153.438 94H143L159.125 48.125H170.969L187.156 94H176.719ZM171.094 75L167.781 64.375C167.573 63.6667 167.292 62.7604 166.938 61.6562C166.604 60.5312 166.26 59.3958 165.906 58.25C165.573 57.0833 165.302 56.0729 165.094 55.2188C164.885 56.0729 164.594 57.1354 164.219 58.4062C163.865 59.6562 163.521 60.8438 163.188 61.9688C162.854 63.0938 162.615 63.8958 162.469 64.375L159.188 75H171.094Z" fill="#2C786C"/>
</g>
<defs>
<clipPath id="clip0_150_2">
<rect width="517" height="324" fill="white"/>
</clipPath>
</defs>
</svg>
